<?xml version="1.0" encoding="UTF-8" standalone="no"?>
<svg
   xmlns:dc="http://purl.org/dc/elements/1.1/"
   xmlns:cc="http://creativecommons.org/ns#"
   xmlns:rdf="http://www.w3.org/1999/02/22-rdf-syntax-ns#"
   xmlns:svg="http://www.w3.org/2000/svg"
   xmlns="http://www.w3.org/2000/svg"
   xmlns:sodipodi="http://sodipodi.sourceforge.net/DTD/sodipodi-0.dtd"
   xmlns:inkscape="http://www.inkscape.org/namespaces/inkscape"
   width="203"
   height="49"
   viewBox="0 0 203 49"
   fill="none"
   version="1.1"
   id="svg44"
   sodipodi:docname="logo-dark-mercury-cash.svg"
   inkscape:version="0.92.3 (2405546, 2018-03-11)">
  <metadata
     id="metadata48">
    <rdf:RDF>
      <cc:Work
         rdf:about="">
        <dc:format>image/svg+xml</dc:format>
        <dc:type
           rdf:resource="http://purl.org/dc/dcmitype/StillImage" />
        <dc:title></dc:title>
      </cc:Work>
    </rdf:RDF>
  </metadata>
  <sodipodi:namedview
     pagecolor="#ffffff"
     bordercolor="#666666"
     borderopacity="1"
     objecttolerance="10"
     gridtolerance="10"
     guidetolerance="10"
     inkscape:pageopacity="0"
     inkscape:pageshadow="2"
     inkscape:window-width="1920"
     inkscape:window-height="1017"
     id="namedview46"
     showgrid="false"
     inkscape:zoom="7.9140227"
     inkscape:cx="52.64372"
     inkscape:cy="32.594193"
     inkscape:window-x="-8"
     inkscape:window-y="-8"
     inkscape:window-maximized="1"
     inkscape:current-layer="svg44" />
  <path
     d="M59.2988 20.081C59.2988 19.274 59.9227 18.63 60.7337 18.63C61.5448 18.63 62.192 19.274 62.192 20.081V20.6785C63.0031 19.5611 64.1104 18.5059 66.0522 18.5059C67.8693 18.5059 69.1716 19.3904 69.8423 20.725C70.8482 19.3904 72.1896 18.5059 74.108 18.5059C76.8608 18.5059 78.5453 20.2439 78.5453 23.3244V30.0517C78.5453 30.8587 77.9214 31.4794 77.1104 31.4794C76.2993 31.4794 75.6443 30.8587 75.6443 30.0439V24.2012C75.6443 22.1993 74.7085 21.1285 73.0786 21.1285C71.4955 21.1285 70.3725 22.2226 70.3725 24.2555V30.0517C70.3725 30.8587 69.7253 31.4794 68.9376 31.4794C68.1266 31.4794 67.4715 30.8587 67.4715 30.0517V24.1857C67.4715 22.2303 66.5123 21.1363 64.9059 21.1363C63.2994 21.1363 62.1998 22.3312 62.1998 24.2633V30.0595C62.1998 30.8664 61.5526 31.4872 60.7415 31.4872C59.9539 31.4872 59.3066 30.8664 59.3066 30.0595V20.081H59.2988Z"
     fill="#8798B0"
     id="path2" />
  <path
     d="M86.9043 31.6424C83.239 31.6424 80.4082 28.9964 80.4082 25.109V25.0625C80.4082 21.4622 82.9739 18.5059 86.5923 18.5059C90.6163 18.5059 92.6049 21.7958 92.6049 24.7055C92.6049 25.5125 91.981 26.0867 91.2402 26.0867H83.3092C83.6211 28.1352 85.0794 29.2835 86.9511 29.2835C88.1754 29.2835 89.1346 28.8568 89.9456 28.1895C90.164 28.0188 90.3511 27.9257 90.6865 27.9257C91.3337 27.9257 91.8406 28.43 91.8406 29.0973C91.8406 29.4542 91.6691 29.7646 91.4585 29.9819C90.3044 30.9983 88.8695 31.6424 86.9043 31.6424ZM89.7819 24.1779C89.5869 22.3157 88.4873 20.8647 86.5689 20.8647C84.7987 20.8647 83.551 22.2226 83.2858 24.1779H89.7819Z"
     fill="#8798B0"
     id="path4" />
  <path
     d="M94.6172 20.0797C94.6172 19.2727 95.241 18.6287 96.0521 18.6287C96.8631 18.6287 97.5104 19.2727 97.5104 20.0797V21.3677C98.181 19.7926 99.4288 18.5977 100.7 18.5977C101.612 18.5977 102.135 19.1951 102.135 20.0254C102.135 20.7858 101.628 21.2901 100.981 21.4065C98.9219 21.7635 97.5026 23.3386 97.5026 26.3182V30.0349C97.5026 30.8186 96.8553 31.4626 96.0443 31.4626C95.2566 31.4626 94.6094 30.8418 94.6094 30.0349V20.0797H94.6172Z"
     fill="#8798B0"
     id="path6" />
  <path
     d="M102.432 25.1323V25.0857C102.432 21.5087 105.208 18.5059 109.021 18.5059C111.01 18.5059 112.375 19.1499 113.459 20.081C113.654 20.2517 113.911 20.6086 113.911 21.0819C113.911 21.8191 113.31 22.3933 112.57 22.3933C112.211 22.3933 111.899 22.2536 111.704 22.1062C110.963 21.4854 110.144 21.0354 108.998 21.0354C106.892 21.0354 105.333 22.8511 105.333 25.0392V25.0857C105.333 27.3282 106.892 29.1128 109.123 29.1128C110.269 29.1128 111.158 28.6628 111.953 27.9955C112.117 27.8558 112.406 27.6851 112.741 27.6851C113.435 27.6851 113.989 28.2593 113.989 28.9499C113.989 29.3301 113.848 29.6405 113.583 29.8577C112.46 30.9285 111.088 31.6501 108.982 31.6501C105.208 31.6424 102.432 28.7093 102.432 25.1323Z"
     fill="#8798B0"
     id="path8" />
  <path
     d="M127.091 30.0427C127.091 30.8264 126.443 31.4704 125.632 31.4704C124.845 31.4704 124.166 30.8497 124.166 30.0427V29.3987C123.355 30.5936 122.178 31.6179 120.213 31.6179C117.358 31.6179 115.705 29.7091 115.705 26.7761V20.072C115.705 19.2651 116.352 18.621 117.14 18.621C117.951 18.621 118.606 19.2651 118.606 20.072V25.9148C118.606 27.8701 119.589 28.9642 121.312 28.9642C122.989 28.9642 124.166 27.8236 124.166 25.8605V20.0643C124.166 19.2573 124.814 18.6133 125.632 18.6133C126.42 18.6133 127.091 19.2573 127.091 20.0643V30.0427Z"
     fill="#8798B0"
     id="path10" />
  <path
     d="M129.75 20.0797C129.75 19.2727 130.374 18.6287 131.185 18.6287C131.996 18.6287 132.643 19.2727 132.643 20.0797V21.3677C133.314 19.7926 134.562 18.5977 135.833 18.5977C136.745 18.5977 137.268 19.1951 137.268 20.0254C137.268 20.7858 136.761 21.2901 136.113 21.4065C134.055 21.7635 132.635 23.3386 132.635 26.3182V30.0349C132.635 30.8186 131.988 31.4626 131.177 31.4626C130.389 31.4626 129.742 30.8418 129.742 30.0349V20.0797H129.75Z"
     fill="#8798B0"
     id="path12" />
  <path
     d="M138.974 34.8846C138.546 34.7449 138.062 34.388 138.062 33.6897C138.062 32.9758 138.616 32.4947 139.24 32.4947C139.481 32.4947 139.622 32.5413 139.77 32.5878C140.105 32.6809 140.37 32.7585 140.776 32.7585C141.642 32.7585 142.094 32.4016 142.577 31.4239L142.671 31.1601L137.976 20.7161C137.883 20.4988 137.805 20.2117 137.805 20.0255C137.805 19.2186 138.429 18.6211 139.24 18.6211C139.98 18.6211 140.394 19.0479 140.651 19.7152L144.051 28.0874L147.217 19.7152C147.459 19.1177 147.865 18.6211 148.605 18.6211C149.37 18.6211 149.994 19.2186 149.994 19.979C149.994 20.2195 149.923 20.5299 149.877 20.6695L145.252 31.711C144.176 34.2871 143.022 35.2415 140.986 35.2415C140.168 35.2415 139.575 35.1251 138.974 34.8846Z"
     fill="#8798B0"
     id="path14" />
  <path
     d="M151.173 27.9473C152.132 27.9473 152.849 28.6611 152.849 29.5922V29.8328C152.849 30.7639 152.132 31.4777 151.173 31.4777C150.19 31.4777 149.473 30.7639 149.473 29.8328V29.5922C149.473 28.6611 150.19 27.9473 151.173 27.9473Z"
     fill="#8798B0"
     id="path16" />
  <path
     d="M154.072 25.1323V25.0857C154.072 21.5087 156.848 18.5059 160.662 18.5059C162.651 18.5059 164.015 19.1499 165.099 20.081C165.294 20.2517 165.551 20.6086 165.551 21.0819C165.551 21.8191 164.951 22.3933 164.21 22.3933C163.851 22.3933 163.54 22.2536 163.345 22.1062C162.604 21.4854 161.785 21.0354 160.639 21.0354C158.533 21.0354 156.973 22.8511 156.973 25.0392V25.0857C156.973 27.3282 158.533 29.1128 160.763 29.1128C161.91 29.1128 162.799 28.6628 163.594 27.9955C163.758 27.8558 164.046 27.6851 164.382 27.6851C165.076 27.6851 165.629 28.2593 165.629 28.9499C165.629 29.3301 165.489 29.6405 165.224 29.8577C164.101 30.9285 162.728 31.6501 160.623 31.6501C156.848 31.6424 154.072 28.7093 154.072 25.1323Z"
     fill="#2FC3C5"
     id="path18" />
  <path
     d="M166.652 27.7305V27.6839C166.652 24.9681 168.789 23.6335 171.877 23.6335C173.289 23.6335 174.295 23.8508 175.277 24.1612V23.8508C175.277 22.0662 174.178 21.1118 172.135 21.1118C171.035 21.1118 170.123 21.3058 169.327 21.6161C169.156 21.6627 169.015 21.686 168.875 21.686C168.204 21.686 167.651 21.1583 167.651 20.491C167.651 19.9634 168.009 19.5134 168.438 19.3504C169.639 18.9004 170.856 18.6133 172.509 18.6133C174.404 18.6133 175.815 19.1176 176.704 20.0177C177.64 20.9256 178.069 22.2602 178.069 23.9051V30.1048C178.069 30.8885 177.445 31.486 176.658 31.486C175.815 31.486 175.246 30.9118 175.246 30.2678V29.7944C174.381 30.8187 173.063 31.6334 171.121 31.6334C168.758 31.6179 166.652 30.26 166.652 27.7305ZM175.324 26.8226V25.9613C174.583 25.6742 173.601 25.457 172.447 25.457C170.575 25.457 169.475 26.2407 169.475 27.552V27.5986C169.475 28.8168 170.552 29.5073 171.947 29.5073C173.866 29.5229 175.324 28.421 175.324 26.8226Z"
     fill="#2FC3C5"
     id="path20" />
  <path
     d="M180.112 30.0889C179.8 29.926 179.559 29.5613 179.559 29.088C179.559 28.4439 180.065 27.9163 180.736 27.9163C180.978 27.9163 181.188 27.9861 181.36 28.087C182.584 28.894 183.856 29.3052 185.002 29.3052C186.25 29.3052 186.967 28.7776 186.967 27.9474V27.9008C186.967 26.9231 185.626 26.5895 184.136 26.1394C182.265 25.6118 180.182 24.8514 180.182 22.446V22.3994C180.182 20.0173 182.171 18.5586 184.69 18.5586C186.031 18.5586 187.443 18.9388 188.667 19.5828C189.073 19.8001 189.361 20.1803 189.361 20.6769C189.361 21.3442 188.831 21.8485 188.16 21.8485C187.918 21.8485 187.778 21.802 187.583 21.7089C186.554 21.1812 185.501 20.8476 184.612 20.8476C183.489 20.8476 182.842 21.3752 182.842 22.0891V22.1356C182.842 23.0667 184.206 23.447 185.696 23.9203C187.544 24.4945 189.626 25.3247 189.626 27.5904V27.637C189.626 30.2829 187.568 31.5942 184.932 31.5942C183.325 31.5942 181.578 31.0899 180.112 30.0889Z"
     fill="#2FC3C5"
     id="path22" />
  <path
     d="M191.637 15.2617C191.637 14.478 192.261 13.834 193.072 13.834C193.883 13.834 194.53 14.478 194.53 15.2617V20.701C195.341 19.5371 196.519 18.5051 198.484 18.5051C201.338 18.5051 202.991 20.4139 202.991 23.3236V30.0509C202.991 30.8579 202.367 31.4786 201.556 31.4786C200.745 31.4786 200.09 30.8579 200.09 30.0509V24.2082C200.09 22.2528 199.108 21.1355 197.384 21.1355C195.707 21.1355 194.53 22.3071 194.53 24.2625V30.0587C194.53 30.8657 193.883 31.4864 193.072 31.4864C192.284 31.4864 191.637 30.8657 191.637 30.0587V15.2617Z"
     fill="#2FC3C5"
     id="path24" />
  <path
     style="display:inline;fill:url(#paint0_linear)"
     d="M 24.626953 0 C 21.304853 -1.4802974e-016 18.076569 0.65129912 15.042969 1.9238281 C 12.110769 3.1575581 9.4744306 4.9275344 7.2128906 7.1777344 C 4.9513606 9.4279244 3.1735438 12.049297 1.9335938 14.966797 C 0.65465875 17.985197 0 21.198406 0 24.503906 C -1.4802974e-016 27.809306 0.65465875 31.014803 1.9335938 34.033203 C 3.1735437 36.950703 4.9513606 39.572066 7.2128906 41.822266 C 9.4744306 44.072466 12.110769 45.842472 15.042969 47.076172 C 18.076569 48.348672 21.304853 49 24.626953 49 C 27.949053 49 31.169537 48.356484 34.210938 47.083984 C 37.143038 45.850184 39.779516 44.080278 42.041016 41.830078 C 44.302616 39.579878 46.080312 36.958516 47.320312 34.041016 C 48.599212 31.022616 49.253906 27.809306 49.253906 24.503906 C 49.253906 21.198406 48.607013 17.985197 47.320312 14.966797 C 46.080312 12.049297 44.302616 9.4279244 42.041016 7.1777344 C 39.779516 4.9275344 37.143037 3.1575581 34.210938 1.9238281 C 31.177337 0.65129913 27.949053 0 24.626953 0 z M 24.628906 2.6777344 C 24.976332 2.6777344 25.320586 2.6852799 25.664062 2.7011719 C 37.298234 3.2395841 46.564453 12.794892 46.564453 24.503906 C 46.564453 36.558506 36.744306 46.332031 24.628906 46.332031 C 12.513506 46.332031 2.6914062 36.558506 2.6914062 24.503906 C 2.6914062 12.449206 12.513506 2.6777344 24.628906 2.6777344 z "
     id="path26" />
  <path
     d="M37.5189 15.3937C37.1445 15.3782 36.7 15.5101 36.2009 15.8593C35.9592 16.0145 35.7174 16.2162 35.4991 16.4568C35.3119 16.643 35.1169 16.8603 34.9142 17.1008L24.9166 27.9561L28.7535 22.2995C29.4631 21.252 29.5957 19.9097 29.1044 18.7458L26.1332 11.7391C25.8758 11.1339 25.369 10.6994 24.7763 10.5209C24.6437 10.4821 24.5111 10.4511 24.3786 10.4433H24.3708C24.3474 10.4433 24.3162 10.4355 24.2928 10.4355C24.285 10.4355 24.2772 10.4355 24.2694 10.4355C24.246 10.4355 24.2304 10.4355 24.207 10.4355C24.1914 10.4355 24.1758 10.4355 24.1602 10.4355C24.1446 10.4355 24.129 10.4355 24.1134 10.4355C24.09 10.4355 24.0744 10.4355 24.051 10.4355C24.0432 10.4355 24.0354 10.4355 24.0276 10.4355C24.0042 10.4355 23.973 10.4355 23.9496 10.4433H23.9418C23.8093 10.4588 23.6767 10.4821 23.5441 10.5209C22.9514 10.6994 22.4446 11.1261 22.1872 11.7391L19.216 18.7535C18.7247 19.9174 18.8495 21.252 19.5669 22.3073L23.4038 27.9561L13.3204 16.9922C13.1801 16.8215 13.0475 16.6663 12.9149 16.5266C12.9071 16.5188 12.9071 16.5111 12.8993 16.5033C12.6108 16.0921 12.2287 15.7895 11.7919 15.5955C11.3864 15.3627 11.0277 15.2696 10.7158 15.2851C10.0373 15.3084 9.41343 15.5722 8.92993 15.9834C8.6102 16.255 8.36845 16.5964 8.20468 16.9689C8.20468 16.9689 8.20468 16.9689 8.20468 16.9766C8.19689 16.9999 8.18129 17.031 8.17349 17.0542V17.062C8.1111 17.2172 8.06431 17.3801 8.03312 17.5508C8.00193 17.706 7.98633 17.869 7.98633 18.0397C7.98633 18.0474 7.98633 18.0474 7.98633 18.0552C7.98633 18.1483 7.99413 18.2259 8.00972 18.288C8.01752 18.3423 8.02532 18.3966 8.04092 18.4431L11.8387 36.8017C11.9089 37.5621 12.3924 38.2604 13.1411 38.5785C14.225 39.0286 15.4884 38.5165 15.9407 37.4302L17.5082 33.7367C17.9995 32.5728 17.8747 31.2382 17.1572 30.183L13.453 24.7204C13.453 24.7204 22.2106 34.4273 22.3822 34.567C23.2712 35.3119 24.5735 35.4438 25.5873 34.792C25.7433 34.6911 25.8836 34.5825 26.0084 34.4584C26.2112 34.2954 34.9844 24.7204 34.9844 24.7204L31.2177 30.2761C30.5081 31.3236 30.3755 32.666 30.8668 33.8298L32.3251 37.2672C32.7774 38.3458 34.0408 38.8656 35.1247 38.4078C35.8188 38.1207 36.2867 37.5 36.4037 36.8017C36.4037 36.7861 36.4115 36.7706 36.4115 36.7551L40.1781 18.7302C40.1781 18.7147 40.1859 18.6992 40.1859 18.6914L40.1937 18.6682C40.2249 18.5363 40.2405 18.4044 40.2405 18.2724C40.2405 18.2336 40.2483 18.1949 40.2483 18.1483C40.2483 16.6352 39.0239 15.4481 37.5189 15.3937Z"
     id="path30"
     fill="url(#paint1_linear)" />
  <defs
     id="defs42">
    <linearGradient
       id="paint0_linear"
       x1="27.1952"
       y1="3.03722"
       x2="18.202"
       y2="78.9064"
       gradientUnits="userSpaceOnUse">
      <stop
         stop-color="#3AD1BF"
         id="stop32" />
      <stop
         offset="1"
         stop-color="#119BD2"
         id="stop34" />
    </linearGradient>
    <linearGradient
       id="paint1_linear"
       x1="25.9361"
       y1="2.88714"
       x2="16.9428"
       y2="78.7564"
       gradientUnits="userSpaceOnUse">
      <stop
         stop-color="#3AD1BF"
         id="stop37" />
      <stop
         offset="1"
         stop-color="#119BD2"
         id="stop39" />
    </linearGradient>
  </defs>
</svg>
