<svg width="116" height="115" viewBox="0 0 116 115" fill="none" xmlns="http://www.w3.org/2000/svg">
<g filter="url(#filter0_d)">
<rect x="20.5" y="20" width="75" height="75" rx="8" fill="#FCFCFC"/>
</g>
<path d="M53.1409 39.8757H47.7422L43.6346 47.067L43.0712 46.4325L42.6722 46.0565L46.7799 39.0062C46.8247 38.889 46.9059 38.7892 47.0115 38.7216C47.1171 38.6539 47.2416 38.6219 47.3667 38.6302H53.7277C53.6278 38.787 53.5414 38.9521 53.4695 39.1237L53.2348 39.5937C53.2134 39.6907 53.1819 39.7852 53.1409 39.8757ZM46.0992 49.8166L46.24 49.9811L46.4043 50.1691L46.9911 50.8036L50.5589 44.7169H51.1223L51.3335 44.1999L51.6152 43.5419H50.1834C50.0914 43.5495 50.002 43.5765 49.9212 43.6211C49.8403 43.6656 49.7697 43.7267 49.7139 43.8004L46.0992 49.8166ZM37.9777 43.6594L43.9162 33.2485H70.4871L72.8343 38.6302H59.4785C59.6122 38.7903 59.7156 38.9735 59.7836 39.1707L59.901 39.4527L60.0888 39.8757H72.6231L70.5575 43.4949H61.6145L61.8961 44.1529L62.1074 44.6699H70.8392C70.9511 44.6724 71.0614 44.6427 71.1571 44.5844C71.2528 44.5261 71.3298 44.4416 71.379 44.3409L74.1488 39.6407C74.1618 39.5946 74.1618 39.5458 74.1488 39.4997C74.1953 39.3626 74.1953 39.2139 74.1488 39.0767L71.4964 32.379C71.4389 32.2561 71.3449 32.154 71.2273 32.0867C71.1096 32.0194 70.9741 31.9901 70.8392 32.0029H43.5641C43.456 32.0054 43.3501 32.0346 43.256 32.0879C43.1618 32.1412 43.0822 32.217 43.0243 32.3084L35.7948 44.8344C36.342 44.275 37.0321 43.8766 37.7899 43.6829L37.9777 43.6594ZM50.1834 71.5549H65.6517C65.7506 71.589 65.858 71.589 65.9569 71.5549L65.3935 70.1919V70.3799H59.3142C58.9042 70.7509 58.4258 71.0383 57.9058 71.2259C57.499 71.3702 57.0699 71.4418 56.6383 71.4374H56.2862C55.9588 71.4156 55.6355 71.3524 55.3239 71.2494C54.7797 71.0844 54.2815 70.7947 53.8686 70.4034H50.5589L48.7516 67.3013C48.7372 67.5955 48.6899 67.8871 48.6107 68.1708C48.6107 68.4528 48.4464 68.7583 48.3525 69.0873L49.6435 71.4374C49.7188 71.4966 49.8065 71.5378 49.9 71.5582C49.9935 71.5785 50.0904 71.5774 50.1834 71.5549ZM46.5686 73.153L46.2165 73.9755C46.1447 74.1622 46.0584 74.3429 45.9583 74.516L46.8503 76.0906C46.8971 76.1932 46.9736 76.2794 47.0698 76.3381C47.166 76.3967 47.2776 76.4251 47.3902 76.4196H68.5154C68.6279 76.4251 68.7395 76.3967 68.8357 76.3381C68.932 76.2794 69.0084 76.1932 69.0552 76.0906L69.2665 75.7146C68.9388 75.6407 68.6282 75.5051 68.3511 75.3151L68.1164 75.1506H47.7422L46.5686 73.153ZM87.2699 57.7129L87.0586 58.0654L72.8108 82.7179C72.7517 82.8065 72.6713 82.8787 72.577 82.928C72.4826 82.9773 72.3774 83.002 72.271 82.9999H43.5641C43.4577 83.002 43.3525 82.9773 43.2582 82.928C43.1638 82.8787 43.0834 82.8065 43.0243 82.7179L28.5887 57.8069C28.5307 57.7113 28.5 57.6015 28.5 57.4897C28.5 57.3778 28.5307 57.268 28.5887 57.1724L34.6916 46.7615C34.5156 47.3998 34.5156 48.0738 34.6916 48.7121L34.8089 49.1116L30.3022 56.8904H36.3816L36.6867 58.4649L36.4755 58.0419H30.3022L43.9162 81.6838H71.8954L85.5329 58.0419H58.9386L61.2859 62.3896H75.7449C75.8457 62.3705 75.9492 62.3705 76.05 62.3896C76.1259 62.4309 76.1925 62.4874 76.2458 62.5554C76.2991 62.6235 76.3379 62.7018 76.3599 62.7854C76.3819 62.869 76.3866 62.9563 76.3736 63.0418C76.3607 63.1273 76.3305 63.2092 76.2848 63.2826L74.9703 65.5152L75.3693 63.5881H74.7591C74.7591 63.7291 74.7591 63.8936 74.7591 64.0111L74.6182 64.6692L74.1253 67.0193C73.7497 68.9463 73.3507 70.8969 72.9517 72.824C72.8498 73.4419 72.5453 74.0083 72.0863 74.4339C71.6273 74.8594 71.0399 75.1198 70.4167 75.1741C69.7507 75.2995 69.062 75.165 68.4919 74.7981C68.2907 74.6771 68.1087 74.5266 67.952 74.3515C67.6938 74.0953 67.4867 73.7923 67.3418 73.4585C66.8488 72.213 66.309 70.9909 65.7926 69.7454L65.4874 69.0403C65.197 68.3979 65.0468 67.7009 65.0468 66.9958C65.0468 66.2906 65.197 65.5936 65.4874 64.9512C65.6289 64.6564 65.7937 64.3735 65.9804 64.1052L66.1447 63.8466H64.4546L63.4219 64.9512C62.1309 66.4082 60.8164 67.8183 59.5254 69.2518C59.0134 69.8616 58.3608 70.3374 57.6242 70.6384C57.1798 70.7925 56.7074 70.8486 56.2393 70.8029C55.9537 70.7708 55.6711 70.7158 55.3943 70.6384C54.8429 70.4562 54.3491 70.132 53.9625 69.6984L43.3294 57.7599L44.6204 60.11L47.3667 63.9876C47.7722 64.5464 48.0497 65.1877 48.1796 65.8661C48.3094 66.5444 48.2883 67.243 48.1178 67.9123C48.0608 68.1948 47.9742 68.4705 47.8596 68.7348C47.2259 70.3094 46.5452 71.8604 45.8879 73.435C45.8352 73.5802 45.7724 73.7215 45.7001 73.858C45.6278 73.9996 45.5413 74.1335 45.4419 74.2575C45.1542 74.6591 44.767 74.9787 44.3183 75.1847C43.8697 75.3908 43.3751 75.4762 42.8834 75.4326C42.2393 75.3556 41.6389 75.067 41.176 74.612C40.7131 74.1571 40.4138 73.5613 40.3249 72.918C39.9024 70.7089 39.433 68.5233 38.987 66.3377C38.6584 64.6457 38.3063 62.9536 37.9542 61.285L37.5317 59.1935L36.9684 56.5849C36.9684 56.2559 36.8275 55.9268 36.7806 55.5978C36.452 53.9058 36.0999 52.2137 35.7478 50.5216C35.607 49.8636 35.4896 49.1586 35.3018 48.4771C35.1044 47.5586 35.2738 46.5992 35.7739 45.8042C36.274 45.0093 37.065 44.4418 37.9777 44.2234C38.5953 44.0608 39.247 44.0832 39.852 44.2879C40.457 44.4926 40.9887 44.8706 41.3812 45.3749C41.6629 45.657 41.9211 45.939 42.1793 46.2445L42.6722 46.7615C43.658 47.819 44.6439 48.9236 45.6297 50.0281C45.7967 50.175 45.9464 50.3406 46.0757 50.5216L49.9487 54.7753L55.183 60.533V60.674L54.9014 60.204C53.3991 58.0184 51.9203 55.8093 50.4416 53.6238C49.9202 52.9091 49.6013 52.0667 49.5187 51.1856C49.436 50.3045 49.5927 49.4174 49.9721 48.6181C50.5355 47.255 51.1223 45.845 51.7091 44.4819C51.7091 44.2469 51.9203 44.0119 52.0142 43.8004C52.5541 42.4608 53.1174 41.1448 53.6808 39.8052L53.8686 39.3587C53.9378 39.2129 54.0162 39.0716 54.1033 38.9357C54.3638 38.5528 54.7139 38.2394 55.1229 38.0229C55.532 37.8063 55.9878 37.6931 56.4505 37.6931C56.9133 37.6931 57.369 37.8063 57.7781 38.0229C58.1872 38.2394 58.5372 38.5528 58.7978 38.9357C58.8611 39.0244 58.9161 39.1188 58.9621 39.2177L59.2438 39.8522C59.6897 40.8393 60.0888 41.8263 60.4878 42.8133C60.6286 43.1189 60.7695 43.4714 60.9103 43.8004C61.0511 44.1294 61.0981 44.2469 61.2154 44.4819C61.8023 45.845 62.3421 47.255 62.9524 48.6181C63.324 49.4671 63.4539 50.4024 63.328 51.3207H66.3794C66.6141 51.0857 66.8488 50.8271 67.0601 50.5686L71.2617 45.8685C71.6113 45.495 71.9965 45.1565 72.4118 44.8579C73.0325 44.3924 73.8013 44.169 74.5745 44.2296C75.3477 44.2901 76.0725 44.6304 76.6134 45.1869C77.1384 45.5977 77.5362 46.1493 77.7605 46.7774C77.9849 47.4056 78.0267 48.0846 77.8809 48.7356C77.6931 49.5816 77.5288 50.4276 77.341 51.2737H83.5847C83.6996 51.2722 83.8127 51.3021 83.9119 51.3601C84.0111 51.418 84.0927 51.5019 84.148 51.6027L87.2699 57.1959C87.3047 57.2776 87.3227 57.3655 87.3227 57.4544C87.3227 57.5433 87.3047 57.6312 87.2699 57.7129ZM42.9304 57.3604C42.9304 57.3604 42.9304 57.3604 42.813 57.3604H42.9304ZM85.6033 56.8904L83.2561 52.5192H61.4502L59.1029 56.8904H85.6033Z" fill="url(#paint0_linear)"/>
<path opacity="0.25" d="M60.9306 63.7761C60.8225 63.7736 60.7166 63.7444 60.6224 63.6911C60.5283 63.6378 60.4487 63.5621 60.3908 63.4706L57.3863 57.8304C57.3277 57.7393 57.2965 57.6332 57.2965 57.5249C57.2965 57.4165 57.3277 57.3104 57.3863 57.2193L60.1326 52.4017H59.757C59.6421 52.4002 59.529 52.4301 59.4298 52.488C59.3306 52.546 59.249 52.6299 59.1937 52.7307L55.9545 58.3474C55.8958 58.4385 55.8647 58.5445 55.8647 58.6529C55.8647 58.7613 55.8958 58.8673 55.9545 58.9584L59.0998 64.5751C59.1577 64.6666 59.2373 64.7423 59.3314 64.7956C59.4256 64.8489 59.5315 64.8781 59.6396 64.8806H63.6065L64.6393 63.7761H60.9306ZM74.709 63.7761H66.1415L65.9772 64.0346C65.7905 64.3029 65.6257 64.5859 65.4843 64.8806H74.4508L74.5916 64.2226C74.5916 64.1051 74.5916 63.9406 74.5916 63.7996L74.709 63.7761Z" fill="black" fill-opacity="0.16"/>
<defs>
<filter id="filter0_d" x="0.5" y="0" width="115" height="115" filterUnits="userSpaceOnUse" color-interpolation-filters="sRGB">
<feFlood flood-opacity="0" result="BackgroundImageFix"/>
<feColorMatrix in="SourceAlpha" type="matrix" values="0 0 0 0 0 0 0 0 0 0 0 0 0 0 0 0 0 0 127 0"/>
<feOffset/>
<feGaussianBlur stdDeviation="10"/>
<feColorMatrix type="matrix" values="0 0 0 0 0 0 0 0 0 0 0 0 0 0 0 0 0 0 0.5 0"/>
<feBlend mode="normal" in2="BackgroundImageFix" result="effect1_dropShadow"/>
<feBlend mode="normal" in="SourceGraphic" in2="effect1_dropShadow" result="shape"/>
</filter>
<linearGradient id="paint0_linear" x1="62.6239" y1="20.0407" x2="44.9783" y2="115.212" gradientUnits="userSpaceOnUse">
<stop stop-color="#3AD1BF"/>
<stop offset="1" stop-color="#119BD2"/>
</linearGradient>
</defs>
</svg>
